<svg xmlns="http://www.w3.org/2000/svg" version="1.1" xmlns:xlink="http://www.w3.org/1999/xlink" xmlns:svgjs="http://svgjs.dev/svgjs" width="2000" height="326" viewBox="0 0 2000 326"><g transform="matrix(1,0,0,1,0.1167820218935276,-0.21862335205082672)"><svg viewBox="0 0 392 64" data-background-color="#ffffff" preserveAspectRatio="xMidYMid meet" height="326" width="2000" xmlns="http://www.w3.org/2000/svg" xmlns:xlink="http://www.w3.org/1999/xlink"><g id="tight-bounds" transform="matrix(1,0,0,1,-0.02288927629112436,0.04291992187501137)"><svg viewBox="0 0 392.04577855258225 63.91416015625" height="63.91416015625" width="392.04577855258225"><g><svg viewBox="0 0 392.04577855258225 63.91416015625" height="63.91416015625" width="392.04577855258225"><g><svg viewBox="0 0 392.04577855258225 63.91416015625" height="63.91416015625" width="392.04577855258225"><g><svg viewBox="0 0 392.04577855258225 63.91416015625" height="63.91416015625" width="392.04577855258225"><g id="textblocktransform"><svg viewBox="0 0 392.04577855258225 63.91416015625" height="63.91416015625" width="392.04577855258225" id="textblock"><g><svg viewBox="0 0 392.04577855258225 63.91416015625" height="63.91416015625" width="392.04577855258225"><g><svg><g></g><g></g></svg></g><g><svg><g><svg></svg></g><g></g></svg></g><g id="text-0"><svg viewBox="0 0 392.04577855258225 63.91416015625" height="63.91416015625" width="392.04577855258225"><g transform="matrix(1,0,0,1,0,11.302783203125)"><svg width="69.82421874999999" viewBox="1.95 -38.89 69.82 39.5" height="39.501953125" data-palette-color="#f2cebe"><path d="M1.95-18.6L1.95-25.29 13.31-25.29 13.31-6.69 16.82-6.69 16.82 0 1.95 0 1.95-6.69 5.76-6.69 5.76-18.6 1.95-18.6ZM5.37-33.45L5.37-33.45Q5.37-34.35 5.7-35.14 6.03-35.94 6.62-36.52 7.2-37.11 8-37.45 8.79-37.79 9.72-37.79L9.72-37.79Q10.6-37.79 11.38-37.45 12.16-37.11 12.74-36.52 13.33-35.94 13.67-35.14 14.01-34.35 14.01-33.45L14.01-33.45Q14.01-32.54 13.67-31.75 13.33-30.96 12.74-30.37 12.16-29.79 11.38-29.44 10.6-29.1 9.72-29.1L9.72-29.1Q8.79-29.1 8-29.44 7.2-29.79 6.62-30.37 6.03-30.96 5.7-31.75 5.37-32.54 5.37-33.45ZM30.83-34.96L30.78-25.29 35.84-25.29 35.84-18.9 30.73-18.9 30.69-8.2Q30.69-7.28 30.83-6.7 30.98-6.13 31.26-5.79 31.54-5.44 31.93-5.32 32.32-5.2 32.83-5.2L32.83-5.2Q33.76-5.2 34.47-5.38 35.18-5.57 35.89-5.81L35.89-5.81 36.94-1.1Q35.69-0.32 34.16 0.15 32.64 0.61 30.54 0.61L30.54 0.61Q29.05 0.61 27.7 0.1 26.34-0.42 25.31-1.45 24.29-2.49 23.68-4.05 23.07-5.62 23.09-7.69L23.09-7.69 23.17-18.9 19.53-18.9 19.53-25.29 23.19-25.29 23.24-31.35 30.83-34.96ZM46.72-38.89L45.06-25.85 39.72-25.85 39.72-38.5 46.72-38.89ZM65.2-17.55Q65.2-18.14 64.82-18.68 64.45-19.21 63.71-19.62 62.98-20.02 61.92-20.26 60.86-20.51 59.51-20.51L59.51-20.51Q59-20.51 58.42-20.42 57.83-20.34 57.33-20.12 56.83-19.9 56.5-19.52 56.17-19.14 56.17-18.55L56.17-18.55Q56.17-18.26 56.25-17.99 56.34-17.72 56.58-17.48 56.83-17.24 57.26-17.03 57.68-16.82 58.37-16.7L58.37-16.7 62.96-15.8Q65.45-15.31 67.13-14.58 68.82-13.84 69.84-12.87 70.87-11.89 71.32-10.69 71.77-9.5 71.77-8.11L71.77-8.11Q71.77-5.93 70.76-4.3 69.74-2.66 68.1-1.57 66.45-0.49 64.38 0.06 62.32 0.61 60.22 0.61L60.22 0.61Q58.85 0.61 57.74 0.44 56.63 0.27 55.74-0.02 54.85-0.32 54.16-0.72 53.46-1.12 52.87-1.61L52.87-1.61 48.45-1.61 48.45-8.4 55.36-8.4 55.36-8.25Q55.39-7.54 55.8-7.02 56.22-6.49 56.89-6.13 57.56-5.76 58.42-5.58 59.27-5.4 60.22-5.4L60.22-5.4Q62.42-5.4 63.42-5.97 64.42-6.54 64.42-7.45L64.42-7.45Q64.42-8.15 63.93-8.65 63.44-9.16 62.2-9.45L62.2-9.45 57.51-10.45Q53.09-11.3 50.85-13.29 48.6-15.28 48.6-18.41L48.6-18.41Q48.6-20.24 49.46-21.74 50.31-23.24 51.77-24.3 53.24-25.37 55.2-25.95 57.17-26.54 59.42-26.54L59.42-26.54Q60.95-26.54 62.15-26.35 63.35-26.17 64.3-25.88 65.25-25.59 65.97-25.18 66.69-24.78 67.25-24.34L67.25-24.34 71.5-24.34 71.5-17.55 65.2-17.55Z" opacity="1" transform="matrix(1,0,0,1,0,0)" fill="#f2cebe" class="undefined-yy-0" data-fill-palette-color="primary"></path></svg></g><g><svg xmlns="http://www.w3.org/2000/svg" xmlns:xlink="http://www.w3.org/1999/xlink" version="1.1" x="84.91396484374998" y="0" viewBox="5 15.665000000000003 90.00000000000001 68.67099999999999" enable-background="new 0 0 100 100" xml:space="preserve" height="63.91416015625" width="83.76570042758226" class="icon-cg-0" data-fill-palette-color="accent" id="cg-0"><g fill="#28502e" data-fill-palette-color="accent"><path d="M83.453 40.218l11.03-11.029c0.688-0.688 0.688-1.806 0-2.495l-11.03-11.029-2.495 2.495 8.017 8.017H71.176c-9.958 0-18.504 6.146-22.059 14.84-3.554-8.694-12.1-14.84-22.059-14.84H5v3.53h22.059c11.191 0 20.294 9.104 20.294 20.294S38.25 70.294 27.059 70.294H5v3.53h22.059c9.959 0 18.505-6.146 22.059-14.84 3.555 8.694 12.101 14.84 22.059 14.84h17.799l-8.017 8.017 2.495 2.495 11.03-11.029c0.688-0.689 0.688-1.807 0-2.495l-11.03-11.029-2.495 2.495 8.017 8.017H71.176c-11.189 0-20.293-9.104-20.293-20.294s9.104-20.294 20.293-20.294h17.799l-8.017 8.017L83.453 40.218z" fill="#28502e" data-fill-palette-color="accent"></path></g></svg></g><g transform="matrix(1,0,0,1,183.76941136508222,12.657763671875003)"><svg width="208.2763671875" viewBox="1.76 -37.99 208.26000000000002 38.6" height="38.59863281249999" data-palette-color="#f2cebe"><path d="M24.9-25.24L24.9-16.09 18.04-16.09 18.04-18.7Q17.04-18.7 16.21-18.57 15.38-18.43 14.76-18.12 14.14-17.8 13.71-17.24 13.28-16.67 13.11-15.84L13.11-15.84 13.11-6.69 18.26-6.69 18.26 0 1.76 0 1.76-6.69 5.54-6.69 5.54-18.6 1.81-18.6 1.81-25.29 13.06-25.29 13.06-23.51Q14.14-24.37 15.48-24.83 16.82-25.29 18.41-25.29L18.41-25.29Q20.02-25.29 21.73-25.27 23.44-25.24 24.9-25.24L24.9-25.24ZM44.6 0L44.6-1.37Q43.75-0.83 43.04-0.45 42.33-0.07 41.62 0.16 40.92 0.39 40.16 0.5 39.4 0.61 38.5 0.61L38.5 0.61Q36.23 0.61 34.43-0.01 32.64-0.63 31.41-1.72 30.17-2.81 29.51-4.28 28.85-5.76 28.85-7.5L28.85-7.5Q28.85-9.25 29.53-10.74 30.2-12.23 31.47-13.29 32.74-14.36 34.58-14.95 36.42-15.55 38.79-15.55L38.79-15.55Q40.52-15.55 41.95-15.37 43.38-15.19 44.6-14.92L44.6-14.92 44.6-15.7Q44.6-16.65 44.24-17.35 43.87-18.04 43.21-18.49 42.55-18.95 41.62-19.15 40.7-19.36 39.6-19.36L39.6-19.36Q37.3-19.36 35.56-18.91 33.81-18.46 32.2-17.6L32.2-17.6 29.86-22.34Q32.35-24.05 35.07-24.95 37.79-25.85 40.84-25.85L40.84-25.85Q43.21-25.85 45.22-25.33 47.24-24.8 48.68-23.62 50.12-22.44 50.94-20.53 51.76-18.63 51.76-15.89L51.76-15.89 51.76-6.69 55.15-6.69 55.15 0 44.6 0ZM39.04-5.15L39.04-5.15Q40.77-5.15 42.19-5.71 43.6-6.27 44.6-7.08L44.6-7.08 44.6-10.3 38.74-10.3Q38.18-10.3 37.64-10.13 37.11-9.96 36.68-9.64 36.25-9.33 36-8.86 35.74-8.4 35.74-7.79L35.74-7.79Q35.74-6.67 36.56-5.91 37.38-5.15 39.04-5.15ZM81.1 0L81.1-14.55Q81.1-16.67 79.98-17.88 78.85-19.09 77-19.09L77-19.09Q75.73-19.09 74.43-18.53 73.14-17.97 71.92-16.43L71.92-16.43 71.92-6.69 76.02-6.69 76.02 0 60.3 0 60.3-6.69 64.01-6.69 64.01-18.6 60.35-18.6 60.35-25.29 71.87-25.29 71.87-23.07Q73.46-24.32 75.42-25.04 77.39-25.76 79.56-25.76L79.56-25.76Q84.13-25.76 86.59-23.21 89.06-20.65 89.06-15.75L89.06-15.75 89.06-6.69 92.65-6.69 92.65 0 81.1 0ZM110.91-31.3L110.91-37.99 121.97-37.99 121.97-6.69 126.9-6.69 126.9 0 114.45 0 114.45-0.98Q113.13-0.29 111.75 0.1 110.37 0.49 108.95 0.49L108.95 0.49Q106.05 0.49 103.62-0.55 101.19-1.59 99.44-3.39 97.7-5.2 96.72-7.63 95.74-10.06 95.74-12.84L95.74-12.84Q95.74-15.63 96.71-18.03 97.67-20.43 99.39-22.22 101.12-24 103.52-25.02 105.93-26.05 108.81-26.05L108.81-26.05Q110.39-26.05 111.78-25.74 113.18-25.44 114.45-24.88L114.45-24.88 114.45-31.3 110.91-31.3ZM109.37-6.25L109.37-6.25Q110.98-6.3 112.28-7.08 113.59-7.86 114.45-9.13L114.45-9.13 114.45-16.58Q113.59-17.87 112.24-18.59 110.88-19.31 109.37-19.29L109.37-19.29Q108.1-19.31 106.99-18.85 105.88-18.38 105.03-17.53 104.19-16.67 103.7-15.48 103.22-14.28 103.22-12.77L103.22-12.77Q103.22-11.28 103.7-10.07 104.19-8.86 105.03-8.02 105.88-7.18 106.99-6.74 108.1-6.3 109.37-6.25ZM129.92-12.74L129.92-12.74Q129.92-15.5 130.92-17.92 131.92-20.34 133.71-22.14 135.49-23.95 137.95-25 140.42-26.05 143.37-26.05L143.37-26.05Q146.33-26.05 148.81-25 151.28-23.95 153.07-22.14 154.85-20.34 155.84-17.92 156.83-15.5 156.83-12.74L156.83-12.74Q156.83-9.99 155.86-7.56 154.9-5.13 153.13-3.31 151.36-1.49 148.88-0.44 146.4 0.61 143.37 0.61L143.37 0.61Q140.32 0.61 137.84-0.44 135.37-1.49 133.61-3.3 131.85-5.1 130.89-7.53 129.92-9.96 129.92-12.74ZM137.22-12.74L137.22-12.74Q137.22-11.3 137.71-10.1 138.2-8.89 139.04-8.01 139.88-7.13 140.99-6.64 142.1-6.15 143.37-6.15L143.37-6.15Q144.67-6.15 145.78-6.63 146.89-7.1 147.71-7.98 148.53-8.86 148.99-10.07 149.45-11.28 149.45-12.74L149.45-12.74Q149.45-14.26 148.99-15.48 148.53-16.7 147.71-17.55 146.89-18.41 145.78-18.86 144.67-19.31 143.37-19.29L143.37-19.29Q142.1-19.31 140.99-18.86 139.88-18.41 139.04-17.55 138.2-16.7 137.71-15.48 137.22-14.26 137.22-12.74ZM160.56-18.6L160.56-25.29 172.13-25.29 172.13-23.1Q173.69-24.34 175.65-25.07 177.6-25.81 179.68-25.81L179.68-25.81Q182.56-25.81 184.62-24.79 186.68-23.78 187.85-21.7L187.85-21.7Q188.66-22.61 189.67-23.35 190.69-24.1 191.83-24.65 192.98-25.2 194.24-25.5 195.5-25.81 196.81-25.81L196.81-25.81Q201.45-25.81 203.94-23.24 206.43-20.68 206.43-15.75L206.43-15.75 206.43-6.69 210.02-6.69 210.02 0 198.47 0 198.47-14.5Q198.47-16.65 197.36-17.87 196.25-19.09 194.27-19.09L194.27-19.09Q192.91-19.09 191.7-18.44 190.49-17.8 189.29-16.21L189.29-16.21Q189.32-15.94 189.32-15.66 189.32-15.38 189.32-15.09L189.32-15.09 189.32-6.69 192.98-6.69 192.98 0 181.43 0 181.43-14.55Q181.43-15.58 181.12-16.41 180.8-17.24 180.24-17.82 179.68-18.41 178.91-18.74 178.14-19.07 177.21-19.09L177.21-19.09Q175.99-19.12 174.68-18.55 173.38-17.99 172.18-16.48L172.18-16.48 172.18-6.69 176.23-6.69 176.23 0 160.51 0 160.51-6.69 164.27-6.69 164.27-18.6 160.56-18.6Z" opacity="1" transform="matrix(1,0,0,1,0,0)" fill="#f2cebe" class="undefined-yy-1" data-fill-palette-color="secondary"></path></svg></g></svg></g></svg></g></svg></g></svg></g></svg></g></svg></g><defs></defs></svg><rect width="392.04577855258225" height="63.91416015625" fill="none" stroke="none" visibility="hidden"></rect></g></svg></g></svg>