<svg xmlns="http://www.w3.org/2000/svg" version="1.1" xmlns:xlink="http://www.w3.org/1999/xlink" xmlns:svgjs="http://svgjs.dev/svgjs" width="2000" height="959" viewBox="0 0 2000 959"><g transform="matrix(1,0,0,1,-1.2121212121212466,0.6900278323211069)"><svg viewBox="0 0 396 190" data-background-color="#ffffff" preserveAspectRatio="xMidYMid meet" height="959" width="2000" xmlns="http://www.w3.org/2000/svg" xmlns:xlink="http://www.w3.org/1999/xlink"><g id="tight-bounds" transform="matrix(1,0,0,1,0.2400000000000091,-0.1367104151626819)"><svg viewBox="0 0 395.52 190.27342083032536" height="190.27342083032536" width="395.52"><g><svg viewBox="0 0 395.52000000000004 190.2734208303254" height="190.27342083032536" width="395.52"><g><svg viewBox="0 0 395.52000000000004 65.23884769895722" height="65.23884769895722" width="395.52000000000004"><g id="textblocktransform"><svg viewBox="0 0 395.52000000000004 65.23884769895722" height="65.23884769895722" width="395.52000000000004" id="textblock"><g><svg viewBox="0 0 395.52000000000004 65.23884769895722" height="65.23884769895722" width="395.52000000000004"><g transform="matrix(1,0,0,1,0,0)"><svg width="395.52000000000004" viewBox="0 0 290.20746999999994 47.86814" height="65.23884769895722" data-palette-color="#f2cebe"><g class="wordmark-text-0" data-fill-palette-color="primary" id="text-0"><path d="M1.017 29.5l-1.017-6.562 11.147-1.727 2.83 18.262 3.459-0.536 1.018 6.571-14.605 2.264-1.019-6.572 3.746-0.58-1.814-11.7zM2.118 14.403v0c-0.092-0.593-0.069-1.163 0.069-1.71 0.13-0.553 0.356-1.054 0.678-1.502 0.329-0.442 0.737-0.816 1.222-1.12 0.479-0.304 1.025-0.503 1.638-0.598v0c0.573-0.089 1.134-0.061 1.683 0.083 0.542 0.145 1.034 0.38 1.475 0.702 0.449 0.328 0.826 0.736 1.13 1.222 0.304 0.479 0.501 1.015 0.593 1.608v0c0.092 0.593 0.066 1.167-0.077 1.722-0.143 0.555-0.38 1.054-0.709 1.496-0.323 0.441-0.721 0.813-1.193 1.116-0.479 0.304-1.005 0.5-1.579 0.589v0c-0.613 0.095-1.193 0.07-1.741-0.074-0.555-0.143-1.057-0.376-1.505-0.698-0.441-0.323-0.808-0.728-1.099-1.216-0.298-0.487-0.493-1.027-0.585-1.62z" fill="#f2cebe" data-fill-palette-color="primary"></path><path d="M27.434 9.276l1.208 9.534 4.977-0.657 0.831 6.296-5.027 0.663 1.342 10.545c0.08 0.608 0.195 1.094 0.343 1.458 0.142 0.365 0.321 0.647 0.536 0.847 0.215 0.2 0.456 0.323 0.724 0.368 0.268 0.045 0.571 0.046 0.908 0.002v0c0.608-0.08 1.136-0.21 1.583-0.391 0.447-0.18 0.895-0.38 1.343-0.601v0l1.643 4.504c-0.752 0.617-1.607 1.147-2.564 1.589-0.965 0.437-2.137 0.746-3.519 0.929v0c-0.978 0.129-1.932 0.084-2.862-0.137-0.937-0.219-1.787-0.625-2.551-1.217-0.764-0.592-1.412-1.377-1.945-2.355-0.538-0.971-0.891-2.139-1.058-3.502v0l-1.378-11.055-3.589 0.474-0.831-6.296 3.609-0.476-0.738-5.975z" fill="#f2cebe" data-fill-palette-color="primary"></path><path d="M43.001 3.429l-0.146 13.063-5.274 0.612-1.449-12.486z" fill="#f2cebe" data-fill-palette-color="primary"></path><path d="M63.814 22.7c-0.038-0.391-0.201-0.751-0.487-1.078-0.28-0.328-0.675-0.601-1.185-0.819-0.51-0.218-1.125-0.376-1.845-0.472-0.712-0.091-1.513-0.093-2.402-0.007v0c-0.332 0.032-0.69 0.098-1.076 0.196-0.38 0.091-0.728 0.225-1.046 0.404-0.311 0.178-0.564 0.4-0.758 0.666-0.194 0.274-0.273 0.603-0.235 0.988v0c0.019 0.192 0.067 0.375 0.144 0.549 0.071 0.174 0.193 0.333 0.368 0.476 0.181 0.143 0.418 0.271 0.71 0.383 0.298 0.105 0.674 0.179 1.127 0.221v0l4.635 0.441c1.671 0.165 3.084 0.435 4.239 0.812 1.161 0.369 2.112 0.842 2.852 1.419 0.74 0.577 1.297 1.246 1.673 2.007 0.369 0.761 0.599 1.603 0.689 2.525v0c0.139 1.427-0.07 2.713-0.628 3.859-0.564 1.147-1.356 2.132-2.373 2.955-1.012 0.816-2.18 1.472-3.505 1.97-1.331 0.499-2.687 0.815-4.067 0.951v0c-0.902 0.088-1.724 0.112-2.465 0.07-0.748-0.041-1.423-0.129-2.025-0.264-0.61-0.141-1.157-0.322-1.641-0.543-0.484-0.221-0.934-0.471-1.349-0.753v0l-4.38 0.428-0.656-6.718 6.837-0.668 0.015 0.149c0.059 0.463 0.244 0.854 0.556 1.172 0.306 0.325 0.694 0.585 1.162 0.78 0.461 0.196 0.98 0.33 1.556 0.401 0.576 0.064 1.179 0.066 1.809 0.004v0c1.446-0.141 2.483-0.434 3.11-0.877 0.62-0.442 0.901-0.962 0.842-1.559v0c-0.045-0.464-0.244-0.847-0.595-1.148-0.358-0.3-0.957-0.506-1.798-0.618v0l-4.725-0.533c-2.975-0.279-5.266-1.002-6.873-2.171-1.608-1.169-2.513-2.782-2.714-4.839v0c-0.118-1.208 0.057-2.333 0.524-3.377 0.467-1.05 1.147-1.971 2.041-2.762 0.9-0.798 1.978-1.453 3.234-1.964 1.263-0.512 2.634-0.84 4.114-0.985v0c1.015-0.099 1.923-0.128 2.724-0.085 0.795 0.043 1.516 0.13 2.166 0.26 0.649 0.131 1.222 0.306 1.719 0.526 0.504 0.219 0.956 0.456 1.356 0.711v0l4.2-0.41 0.657 6.718z" fill="#f2cebe" data-fill-palette-color="primary"></path><path d="M0 0" fill="#f2cebe" data-fill-palette-color="secondary"></path><path d="M106.922 12.088l0.519 9.086-6.809 0.389-0.148-2.586c-0.666 0.038-1.269 0.116-1.81 0.233-0.547 0.118-1.018 0.295-1.412 0.532-0.401 0.23-0.734 0.539-0.998 0.928-0.258 0.389-0.428 0.859-0.511 1.412v0l0.519 9.085 5.112-0.292 0.379 6.639-16.373 0.935-0.379-6.639 3.754-0.214-0.676-11.821-3.703 0.211-0.379-6.629 11.162-0.637 0.101 1.767c0.68-0.606 1.454-1.088 2.321-1.445 0.874-0.357 1.834-0.566 2.879-0.625v0c1.065-0.061 2.164-0.117 3.296-0.168 1.132-0.051 2.184-0.105 3.156-0.161z" fill="#f2cebe" data-fill-palette-color="secondary"></path><path d="M127.531 36.643l-0.035-1.36c-0.557 0.374-1.069 0.691-1.536 0.95-0.46 0.265-0.921 0.48-1.384 0.645-0.469 0.165-0.953 0.291-1.451 0.378-0.498 0.086-1.047 0.137-1.647 0.152v0c-1.506 0.039-2.858-0.134-4.054-0.517-1.197-0.383-2.214-0.924-3.053-1.622-0.832-0.699-1.48-1.533-1.944-2.501-0.458-0.969-0.702-2.026-0.732-3.172v0c-0.03-1.166 0.163-2.248 0.577-3.246 0.421-0.998 1.043-1.857 1.865-2.579 0.822-0.728 1.841-1.304 3.057-1.729 1.21-0.424 2.597-0.657 4.163-0.696v0c1.146-0.029 2.194 0.004 3.144 0.099 0.949 0.096 1.833 0.223 2.651 0.383v0l-0.02-0.78c-0.016-0.633-0.153-1.176-0.412-1.63-0.252-0.454-0.601-0.825-1.049-1.114-0.441-0.289-0.97-0.492-1.586-0.609-0.623-0.124-1.298-0.177-2.025-0.159v0c-1.52 0.039-2.852 0.223-3.997 0.553-1.152 0.33-2.254 0.791-3.306 1.385v0l-2.45-4.649c1.624-1.175 3.328-2.086 5.112-2.732 1.791-0.639 3.696-0.985 5.715-1.036v0c1.566-0.04 3.02 0.096 4.362 0.408 1.348 0.312 2.509 0.849 3.483 1.612 0.973 0.755 1.746 1.759 2.318 3.011 0.572 1.246 0.881 2.775 0.927 4.588v0l0.234 9.137 3.379-0.086 0.17 6.647zM121.862 31.666v0c1.153-0.03 2.191-0.243 3.114-0.64 0.93-0.397 1.722-0.871 2.375-1.421v0l-0.082-3.199-5.828 0.149c-0.373 0.01-0.735 0.075-1.086 0.198-0.35 0.122-0.666 0.294-0.947 0.514-0.275 0.214-0.495 0.476-0.66 0.788-0.159 0.311-0.233 0.67-0.222 1.076v0c0.019 0.746 0.305 1.363 0.857 1.848 0.553 0.486 1.379 0.715 2.479 0.687z" fill="#f2cebe" data-fill-palette-color="secondary"></path><path d="M163.318 36.652l0.173-14.459c0.017-1.407-0.34-2.514-1.07-3.323-0.737-0.809-1.719-1.221-2.946-1.235v0c-0.847-0.01-1.699 0.166-2.556 0.529-0.864 0.356-1.706 1.04-2.525 2.05v0l-0.116 9.679 4.08 0.049-0.08 6.65-15.629-0.188 0.08-6.65 3.69 0.045 0.142-11.839-3.64-0.044 0.08-6.64 11.449 0.138-0.027 2.2c1.063-0.807 2.247-1.443 3.553-1.908 1.306-0.464 2.678-0.688 4.119-0.671v0c3.026 0.036 5.346 0.911 6.959 2.624 1.613 1.706 2.4 4.186 2.361 7.439v0l-0.108 8.999 3.57 0.043-0.08 6.65z" fill="#f2cebe" data-fill-palette-color="secondary"></path><path d="M193.999 6.642l0.335-6.642 10.976 0.554-1.567 31.06 4.893 0.248-0.335 6.641-12.354-0.624 0.049-0.968c-0.895 0.409-1.805 0.72-2.731 0.933-0.925 0.214-1.857 0.297-2.796 0.25v0c-1.918-0.097-3.664-0.532-5.241-1.306-1.57-0.767-2.904-1.775-4.002-3.026-1.091-1.257-1.919-2.704-2.485-4.341-0.565-1.644-0.8-3.385-0.707-5.222v0c0.093-1.844 0.499-3.546 1.219-5.105 0.713-1.559 1.668-2.9 2.866-4.021 1.198-1.121 2.61-1.981 4.235-2.579 1.626-0.599 3.394-0.85 5.305-0.754v0c1.045 0.053 2.026 0.206 2.941 0.459 0.909 0.246 1.773 0.577 2.593 0.992v0l0.322-6.372zM191.216 31.423v0c1.074 0.021 2.053-0.207 2.938-0.683 0.891-0.469 1.641-1.109 2.25-1.919v0l0.373-7.391c-0.523-0.887-1.218-1.593-2.086-2.117-0.875-0.518-1.816-0.796-2.821-0.834v0c-0.838-0.056-1.631 0.051-2.38 0.321-0.748 0.269-1.416 0.673-2.003 1.21-0.588 0.538-1.062 1.195-1.421 1.971-0.366 0.776-0.575 1.663-0.625 2.662v0c-0.05 0.985 0.068 1.886 0.354 2.701 0.279 0.815 0.684 1.516 1.215 2.104 0.531 0.588 1.156 1.043 1.874 1.366 0.718 0.33 1.495 0.533 2.332 0.609z" fill="#f2cebe" data-fill-palette-color="secondary"></path><path d="M211.946 26.129v0c0.157-1.827 0.632-3.509 1.426-5.046 0.801-1.537 1.841-2.853 3.119-3.948 1.278-1.088 2.76-1.908 4.447-2.459 1.687-0.558 3.504-0.753 5.45-0.586v0c1.953 0.168 3.716 0.67 5.29 1.508 1.581 0.832 2.909 1.892 3.983 3.182 1.073 1.296 1.867 2.77 2.381 4.419 0.514 1.65 0.693 3.388 0.536 5.215v0c-0.156 1.82-0.622 3.503-1.397 5.049-0.769 1.553-1.789 2.878-3.061 3.973-1.272 1.102-2.755 1.928-4.448 2.479-1.7 0.557-3.55 0.749-5.55 0.578v0c-2.013-0.173-3.806-0.678-5.38-1.516-1.575-0.831-2.892-1.894-3.952-3.189-1.06-1.289-1.837-2.761-2.331-4.416-0.5-1.662-0.671-3.41-0.513-5.243zM219.169 26.749v0c-0.082 0.95 0.006 1.837 0.264 2.662 0.25 0.824 0.63 1.55 1.138 2.176 0.508 0.632 1.113 1.139 1.816 1.52 0.703 0.388 1.473 0.618 2.31 0.69v0c0.857 0.074 1.664-0.018 2.422-0.274 0.764-0.249 1.44-0.639 2.028-1.171 0.588-0.538 1.073-1.193 1.453-1.962 0.374-0.771 0.602-1.638 0.685-2.601v0c0.086-1.003 0.011-1.919-0.226-2.75-0.243-0.831-0.61-1.551-1.099-2.162-0.49-0.611-1.09-1.097-1.802-1.459-0.705-0.362-1.486-0.573-2.345-0.633v0c-0.836-0.085-1.632-0.01-2.388 0.227-0.756 0.236-1.438 0.613-2.044 1.129-0.606 0.517-1.103 1.163-1.491 1.94-0.394 0.776-0.635 1.665-0.721 2.668z" fill="#f2cebe" data-fill-palette-color="secondary"></path><path d="M243.031 23.101l0.87-6.583 11.401 1.506-0.286 2.161c1.133-0.684 2.372-1.183 3.718-1.496 1.345-0.306 2.702-0.369 4.07-0.188v0c1.89 0.25 3.469 0.794 4.737 1.634 1.267 0.847 2.193 2.001 2.78 3.464v0c0.607-0.525 1.277-0.988 2.009-1.389 0.732-0.401 1.499-0.73 2.299-0.987 0.801-0.264 1.628-0.441 2.481-0.53 0.852-0.089 1.711-0.077 2.577 0.038v0c3.047 0.402 5.276 1.551 6.687 3.445 1.416 1.902 1.911 4.472 1.483 7.711v0l-1.179 8.922 3.529 0.466-0.87 6.593-11.372-1.502 1.887-14.286c0.187-1.414-0.034-2.57-0.661-3.466-0.621-0.896-1.583-1.43-2.885-1.602v0c-0.892-0.118-1.763-0.018-2.612 0.301-0.856 0.317-1.742 0.947-2.66 1.887v0c-0.01 0.18-0.028 0.363-0.053 0.548-0.024 0.185-0.049 0.373-0.074 0.565v0l-1.092 8.269 3.608 0.476-0.871 6.593-11.381-1.503 1.894-14.336c0.089-0.674 0.067-1.296-0.066-1.865-0.139-0.577-0.368-1.081-0.688-1.513-0.313-0.431-0.709-0.79-1.19-1.075-0.473-0.284-1.013-0.473-1.619-0.567v0c-0.804-0.126-1.66-0.061-2.568 0.196-0.901 0.257-1.811 0.83-2.729 1.717v0l-1.274 9.646 3.996 0.528-0.871 6.593-15.496-2.047 0.871-6.593 3.708 0.49 1.55-11.738z" fill="#f2cebe" data-fill-palette-color="secondary"></path></g></svg></g></svg></g></svg></g></svg></g><g transform="matrix(1,0,0,1,128.58901805767974,84.71696525341261)"><svg viewBox="0 0 138.34196388464056 105.55645557691277" height="105.55645557691277" width="138.34196388464056"><g><svg xmlns="http://www.w3.org/2000/svg" xmlns:xlink="http://www.w3.org/1999/xlink" version="1.1" x="0" y="0" viewBox="5 15.665000000000003 90.00000000000001 68.67099999999999" enable-background="new 0 0 100 100" xml:space="preserve" height="105.55645557691277" width="138.34196388464056" class="icon-icon-0" data-fill-palette-color="accent" id="icon-0"><g fill="#f2cebe" data-fill-palette-color="accent"><path d="M83.453 40.218l11.03-11.029c0.688-0.688 0.688-1.806 0-2.495l-11.03-11.029-2.495 2.495 8.017 8.017H71.176c-9.958 0-18.504 6.146-22.059 14.84-3.554-8.694-12.1-14.84-22.059-14.84H5v3.53h22.059c11.191 0 20.294 9.104 20.294 20.294S38.25 70.294 27.059 70.294H5v3.53h22.059c9.959 0 18.505-6.146 22.059-14.84 3.555 8.694 12.101 14.84 22.059 14.84h17.799l-8.017 8.017 2.495 2.495 11.03-11.029c0.688-0.689 0.688-1.807 0-2.495l-11.03-11.029-2.495 2.495 8.017 8.017H71.176c-11.189 0-20.293-9.104-20.293-20.294s9.104-20.294 20.293-20.294h17.799l-8.017 8.017L83.453 40.218z" fill="#f2cebe" data-fill-palette-color="accent"></path></g></svg></g></svg></g><g></g></svg></g><defs></defs></svg><rect width="395.52" height="190.27342083032536" fill="none" stroke="none" visibility="hidden"></rect></g></svg></g></svg>